<svg xmlns="http://www.w3.org/2000/svg" viewBox="0 0 1150.06 542.12"><defs><style>.cls-1,.cls-10,.cls-11,.cls-12,.cls-14,.cls-15,.cls-19,.cls-2,.cls-22,.cls-8,.cls-9{fill:none;}.cls-1,.cls-10,.cls-11,.cls-2,.cls-5,.cls-6,.cls-7,.cls-8,.cls-9{stroke:#000;}.cls-1,.cls-10,.cls-12,.cls-14,.cls-15,.cls-17,.cls-18,.cls-19,.cls-2,.cls-21,.cls-22,.cls-5,.cls-6,.cls-7,.cls-8,.cls-9{stroke-miterlimit:10;}.cls-1,.cls-11{stroke-width:2px;}.cls-2{stroke-width:2.5px;}.cls-3{fill:#010002;}.cls-4{fill:#f0bc5e;}.cls-5{font-size:14px;}.cls-17,.cls-18,.cls-21,.cls-5,.cls-6,.cls-7{font-family:Txt_IV25, Txt;}.cls-18,.cls-21,.cls-6{font-size:11px;}.cls-7{font-size:13.01px;}.cls-10,.cls-8,.cls-9{stroke-width:3px;}.cls-11,.cls-8,.cls-9{stroke-dasharray:20 10;}.cls-15,.cls-22,.cls-9{stroke-linecap:square;}.cls-11{stroke-miterlimit:15;}.cls-12,.cls-18{stroke:#c1272d;}.cls-13,.cls-18{fill:#c1272d;}.cls-14,.cls-15,.cls-17{stroke:#2e3192;}.cls-16,.cls-17{fill:#2e3192;}.cls-17{font-size:9.95px;}.cls-17,.cls-18,.cls-21{stroke-width:0.5px;}.cls-19,.cls-21,.cls-22{stroke:#009245;}.cls-20,.cls-21{fill:#009245;}</style></defs><title>Concept</title><g id="Livello_2" data-name="Livello 2"><path d="M141.83,246.17,74.16,221.1a1.67,1.67,0,0,0-2.15,1h0l-7.49,20.39a1.67,1.67,0,0,0,1,2.15h0l7.84,2.88-1.73,4.71a1.67,1.67,0,0,0,1,2.14l15.69,5.76-1.15,3.14a6.6,6.6,0,0,0,2.38,7.7v8.53H67.06a8.38,8.38,0,0,0-6-4.85v-3.51a1.67,1.67,0,0,0-1.67-1.67H52.67A1.67,1.67,0,0,0,51,271.14v26.74a1.67,1.67,0,0,0,1.67,1.67h6.74a1.67,1.67,0,0,0,1.67-1.67v-3.51a8.38,8.38,0,0,0,6-4.85H89.54v1.67a5,5,0,1,0,10,0V272.68a6.63,6.63,0,0,0,3.28-3.65l1.15-3.14,14.12,5.18a1.67,1.67,0,0,0,2.14-1l.63-1.71a10,10,0,0,0,11-13.95l10.13-5.2a1.67,1.67,0,0,0-.18-3.06ZM92.89,272.49l1.38.5a6.65,6.65,0,0,0,2,.38v6.12H92.89ZM57.74,296.21h-3.4v-23.4h3.4Zm6.68-10a5,5,0,0,1-3.34,4.73v-12.8a5,5,0,0,1,3.34,4.73Zm3.39-3.34H96.23v3.34H67.82Zm26.74,10a1.67,1.67,0,0,1-1.67-1.67v-1.67h3.34v1.67A1.67,1.67,0,0,1,94.56,292.86Zm6.31-28.13-1.15,3.14a3.34,3.34,0,0,1-4.29,2l-3.14-1.15a3.34,3.34,0,0,1-2-4.29h0l1.15-3.14,8.47,3.11Zm16.84,2.62L75.35,251.81l1.15-3.14,25.1,9.22a1.68,1.68,0,0,0,1.72-.35l4.69-4.42,13.15,4.83Zm11.3-6.53a6.71,6.71,0,0,1-6.94,4.35l2.58-7,4.22-2.17A6.63,6.63,0,0,1,129,260.83Zm-5.64-5.78-.26,0-14.9-5.47a1.67,1.67,0,0,0-1.72.35l-4.7,4.42L68.24,242.07l6.34-17.25L137.11,248Z" transform="translate(-25.5 -40.4)"/><path d="M81.94,243.54l1.15-3.14,3.14,1.15-1.15,3.14Z" transform="translate(-25.5 -40.4)"/><path d="M88.22,245.85l1.15-3.14,3.14,1.15L91.35,247Z" transform="translate(-25.5 -40.4)"/><path d="M94.49,248.15,95.64,245l3.14,1.15-1.15,3.14Z" transform="translate(-25.5 -40.4)"/></g><g id="Livello_2_copia" data-name="Livello 2 copia"><path d="M603.16,78.94A1.67,1.67,0,0,0,603,82l10.1,5.25a10,10,0,0,0,10.92,14l.62,1.71a1.67,1.67,0,0,0,2.14,1l14.15-5.11L642,102a6.63,6.63,0,0,0,3.26,3.67l-.09,18.51a5,5,0,1,0,10,.05v-1.67l22.49.11a8.38,8.38,0,0,0,6,4.88l0,3.51a1.67,1.67,0,0,0,1.66,1.68l6.74,0a1.67,1.67,0,0,0,1.68-1.66l.14-26.74a1.67,1.67,0,0,0-1.66-1.68l-6.74,0a1.67,1.67,0,0,0-1.68,1.66l0,3.51a8.38,8.38,0,0,0-6,4.82l-22.49-.11,0-8.53a6.6,6.6,0,0,0,2.42-7.69l-1.14-3.14,15.72-5.68a1.67,1.67,0,0,0,1-2.14l-1.7-4.72,7.86-2.84h0a1.67,1.67,0,0,0,1-2.14L673.1,55.22h0a1.67,1.67,0,0,0-2.14-1L603.16,78.95Zm48.78,33.57-3.34,0,0-6.12a6.65,6.65,0,0,0,2-.37l1.39-.49ZM687.12,106l3.4,0-.12,23.4-3.4,0Zm-6.74,10a5,5,0,0,1,3.37-4.71l-.06,12.8a5,5,0,0,1-3.32-4.74ZM677,119.33l-28.41-.14,0-3.34L677,116Zm-28.44,4.87v-1.67l3.34,0v1.67a1.67,1.67,0,1,1-3.34,0ZM645,97.38l8.49-3.07,1.14,3.14h0a3.34,3.34,0,0,1-2,4.28l-3.15,1.14a3.34,3.34,0,0,1-4.28-2L644,97.72Zm-21.21-6.55,13.17-4.76,4.67,4.44a1.68,1.68,0,0,0,1.72.36l25.15-9.09,1.14,3.14-42.44,15.34Zm-7.7-2L620.28,91l2.55,7a6.71,6.71,0,0,1-6.92-4.38A6.63,6.63,0,0,1,616.07,88.81Zm-8.2-8,62.65-22.85,6.25,17.28L643.17,87.37l-4.67-4.44a1.67,1.67,0,0,0-1.72-.36L621.84,88l-.26,0Z" transform="translate(-25.5 -40.4)"/><path d="M658.92,77.76l-1.14-3.14,3.14-1.14,1.14,3.14Z" transform="translate(-25.5 -40.4)"/><path d="M652.63,80l-1.14-3.14,3.14-1.14,1.14,3.14Z" transform="translate(-25.5 -40.4)"/><path d="M646.35,82.3l-1.14-3.14L648.35,78l1.14,3.14Z" transform="translate(-25.5 -40.4)"/></g><g id="Livello_2_copia_2" data-name="Livello 2 copia 2"><path d="M1059.16,245.94a1.67,1.67,0,0,0-.2,3.05l10.1,5.25a10,10,0,0,0,10.92,14l.62,1.71a1.67,1.67,0,0,0,2.14,1l14.15-5.11L1098,269a6.63,6.63,0,0,0,3.26,3.67l-.09,18.51a5,5,0,1,0,10,.05v-1.67l22.49.11a8.38,8.38,0,0,0,6,4.88l0,3.51a1.67,1.67,0,0,0,1.66,1.68l6.74,0a1.67,1.67,0,0,0,1.68-1.66l.14-26.74a1.67,1.67,0,0,0-1.66-1.68l-6.74,0a1.67,1.67,0,0,0-1.68,1.66l0,3.51a8.38,8.38,0,0,0-6,4.82l-22.49-.11,0-8.53a6.6,6.6,0,0,0,2.42-7.69l-1.14-3.14,15.72-5.68a1.67,1.67,0,0,0,1-2.14l-1.7-4.72,7.86-2.84h0a1.67,1.67,0,0,0,1-2.14l-7.39-20.43h0a1.67,1.67,0,0,0-2.14-1l-67.79,24.73Zm48.78,33.57-3.34,0,0-6.12a6.65,6.65,0,0,0,2-.37l1.39-.49Zm35.18-6.51,3.4,0-.12,23.4-3.4,0Zm-6.74,10a5,5,0,0,1,3.37-4.71l-.06,12.8a5,5,0,0,1-3.32-4.74Zm-3.41,3.33-28.41-.14,0-3.34L1133,283Zm-28.44,4.87v-1.67l3.34,0v1.67a1.67,1.67,0,0,1-3.34,0ZM1101,264.38l8.49-3.07,1.14,3.14h0a3.34,3.34,0,0,1-2,4.28l-3.15,1.14a3.34,3.34,0,0,1-4.28-2l-1.14-3.14Zm-21.21-6.55,13.17-4.76,4.67,4.44a1.68,1.68,0,0,0,1.72.36l25.15-9.09,1.14,3.14-42.44,15.34Zm-7.7-2,4.21,2.19,2.55,7a6.71,6.71,0,0,1-6.92-4.38A6.63,6.63,0,0,1,1072.07,255.81Zm-8.2-8,62.65-22.85,6.25,17.28-33.61,12.15-4.67-4.44a1.67,1.67,0,0,0-1.72-.36l-14.93,5.4-.26,0Z" transform="translate(-25.5 -40.4)"/><path d="M1114.92,244.76l-1.14-3.14,3.14-1.14,1.14,3.14Z" transform="translate(-25.5 -40.4)"/><path d="M1108.63,247l-1.14-3.14,3.14-1.14,1.14,3.14Z" transform="translate(-25.5 -40.4)"/><path d="M1102.35,249.3l-1.14-3.14,3.14-1.14,1.14,3.14Z" transform="translate(-25.5 -40.4)"/></g><g id="Livello_5" data-name="Livello 5"><line class="cls-1" x1="593.5" y1="67.6" x2="556.5" y2="217.6"/><line class="cls-1" x1="580.5" y1="62.6" x2="390.5" y2="216.6"/><line class="cls-1" x1="119.5" y1="227.6" x2="309.5" y2="382.6"/><line class="cls-1" x1="106.5" y1="232.6" x2="142.5" y2="383.6"/><line class="cls-1" x1="1046.5" y1="232.6" x2="1009.5" y2="383.6"/><line class="cls-1" x1="842.5" y1="382.6" x2="1032.5" y2="229.6"/><ellipse class="cls-2" cx="473" cy="217.6" rx="83.5" ry="9"/><ellipse class="cls-2" cx="226.5" cy="383.1" rx="83.5" ry="9"/><ellipse class="cls-2" cx="925.5" cy="384.1" rx="83.5" ry="9"/></g><g id="Livello_6" data-name="Livello 6"><path class="cls-3" d="M483.79,246.05c-1.67,2.79-1.58,6.23,1.28,8.3,2.44,1.77,6.79,1.54,8.46-1.25,3.45-5.77,9.71-10.12,9.71-10.12s-2.31-5-3.4-14.31C499.85,228.66,487.72,239.48,483.79,246.05Z" transform="translate(-25.5 -40.4)"/><path class="cls-3" d="M533,195.82a125,125,0,0,0-23-16.19,10.38,10.38,0,0,0-3-1.53,6.19,6.19,0,0,0-2.12-.45,9.16,9.16,0,0,0-3.33.2,8.57,8.57,0,0,0-5.69,4.5,115.5,115.5,0,0,0-13.25,19c-3.81,6.69,6.64,12.67,10.45,6,1.19-2.09,2.42-4.15,3.7-6.18q1.66,11,3.31,21.91a6.91,6.91,0,0,0,1.95,3.79,104.11,104.11,0,0,0,9.2,30.1c3.39,6.89,13.82.87,10.45-6a86.76,86.76,0,0,1-7.22-22.73c3.14-2.14,4.28-6,3.69-9.91q-1.64-10.82-3.27-21.64a119.67,119.67,0,0,1,9.58,7.54C530.3,209.28,538.89,200.92,533,195.82Z" transform="translate(-25.5 -40.4)"/><ellipse class="cls-3" cx="478.52" cy="124.29" rx="10.54" ry="10.34"/></g><g id="Livello_7" data-name="Livello 7"><path d="M589.13,470.52H534.77a1.77,1.77,0,0,0-1.77,1.77v16.14a1.59,1.59,0,0,1,0,1.86v16.14a1.73,1.73,0,0,0,.3.94,1.75,1.75,0,0,0-.3.93v16.14a1.74,1.74,0,0,0,.23.82,1.72,1.72,0,0,0-.23.82v16.14a1.77,1.77,0,0,0,1.77,1.78h54.37a1.77,1.77,0,0,0,1.77-1.78V526.09a1.72,1.72,0,0,0-.23-.82,1.74,1.74,0,0,0,.23-.82V508.3a1.73,1.73,0,0,0-.3-.93,1.76,1.76,0,0,0,.3-.94V490.3a1.71,1.71,0,0,0-.3-.93,1.73,1.73,0,0,0,.3-.93V472.29A1.77,1.77,0,0,0,589.13,470.52ZM584,538.82H538.75V529.5H584v9.33Zm0-18.48H538.75V511H584v9.32Zm0-17.77H538.75v-9.32H584v9.32Zm0-18H538.75v-9.32H584v9.32Zm84,11.35a25.63,25.63,0,0,1-25.54,25.65h-46.1a6.79,6.79,0,0,0,.53-2.58v-2.84h45.57A20.24,20.24,0,1,0,639.09,476l-1.72.29-1-1.46a20.08,20.08,0,0,0-18.82-8.94l-2.27.23-.6-2.22a20.1,20.1,0,0,0-39.34,2.45h-5.45a25.5,25.5,0,0,1,49.33-6,25.48,25.48,0,0,1,20.64,10,23.49,23.49,0,0,1,2.58-.15A25.63,25.63,0,0,1,668,495.92Zm-92.07-16.17a2.33,2.33,0,1,1,2.33,2.35A2.34,2.34,0,0,1,575.93,479.75Zm0,17.65a2.33,2.33,0,1,1,2.33,2.35A2.34,2.34,0,0,1,575.93,497.41Zm0,18.1a2.33,2.33,0,1,1,2.33,2.35A2.34,2.34,0,0,1,575.93,515.51Zm0,18.53a2.33,2.33,0,1,1,2.33,2.34A2.34,2.34,0,0,1,575.93,534Z" transform="translate(-25.5 -40.4)"/></g><g id="Livello_8" data-name="Livello 8"><path class="cls-4" d="M1144.41,349.13l-10-10,12.23-12.23,10,10Z" transform="translate(-25.5 -40.4)"/><path d="M1138.85,339.12l5.56,5.56,7.79-7.79-5.56-5.56Zm7.79-5.56,3.34,3.34-5.56,5.56-3.34-3.34Z" transform="translate(-25.5 -40.4)"/><path d="M1165.55,342.45l.56.56,9.45-9.45L1150,308l-9.45,9.45.56.56a2.36,2.36,0,1,1-3.34,3.34l-.56-.56-11.68,11.68,2.22,2.22-1.11,1.11-2.22-2.22-3.34,3.34,2.22,2.22-1.11,1.11-2.22-2.22-4.45,4.45L1141.08,368l11.12-11.12-2.22-2.22,1.11-1.11,2.22,2.22,3.34-3.34-2.22-2.22,1.11-1.11,2.22,2.22,5-5-.56-.56a2.36,2.36,0,0,1,3.34-3.34Zm-13.35-30,1.11,1.11-2.22,2.22-1.11-1.11Zm2.22,2.22,1.11,1.11-2.22,2.22-1.11-1.11Zm2.22,2.22,1.11,1.11-2.22,2.22-1.11-1.11Zm2.22,2.22,1.11,1.11-2.22,2.22-1.11-1.11Zm-20,44.49-1.11-1.11,2.22-2.22,1.11,1.11Zm-2.22-2.22-1.11-1.11,2.22-2.22,1.11,1.11Zm-2.22-2.22-1.11-1.11,2.22-2.22,1.11,1.11Zm-2.22-2.22-1.11-1.11,2.22-2.22,1.11,1.11Zm28.42-10.62-2.84,2.84-2.22-2.22-3.34,3.34,2.22,2.22-1.11,1.11-2.22-2.22-3.34,3.34,2.22,2.22-8.9,8.9L1140,364.7l3.34-3.34-10-10-3.34,3.34-7.79-7.79,2.22-2.22,4.45,4.45L1130,348l-1.11-1.11,4.45-4.45-3.34-3.34,4.45-4.45-1.11-1.11-5.56,5.56,3.34,3.34-3.34,3.34-3.34-3.34-3.34,3.34-3.34-3.34,2.22-2.22,2.22,2.22,3.34-3.34-2.22-2.22,1.11-1.11,2.22,2.22,3.34-3.34-2.22-2.22,9.51-9.51a3.93,3.93,0,0,0,5.45-5.45l7.29-7.29,1.11,1.11-3.34,3.34,10,10,3.34-3.34,7.79,7.79-2.22,2.22-4.45-4.45L1161.1,328l1.11,1.11-4.45,4.45,3.34,3.34-4.45,4.45,1.11,1.11,5.56-5.56-3.34-3.34,3.34-3.34,3.34,3.34,3.34-3.34,3.34,3.34-7.29,7.29a3.93,3.93,0,0,0-5.45,5.45Z" transform="translate(-25.5 -40.4)"/><rect x="1135.61" y="341.11" width="3.15" height="1.57" transform="translate(65.82 863.85) rotate(-45)"/><rect x="1137.84" y="343.33" width="3.15" height="1.57" transform="translate(64.9 866.07) rotate(-45)"/><rect x="1140.06" y="345.56" width="3.15" height="1.57" transform="translate(63.98 868.29) rotate(-45)"/><rect x="1147.85" y="328.88" width="3.15" height="1.57" transform="translate(78.05 868.91) rotate(-45)"/><rect x="1150.07" y="331.1" width="3.15" height="1.57" transform="translate(77.13 871.14) rotate(-45)"/><rect x="1152.29" y="333.33" width="3.15" height="1.57" transform="translate(76.21 873.36) rotate(-45)"/><rect x="1137.51" y="333.65" width="1.57" height="3.15" transform="translate(70.86 862.68) rotate(-45)"/><rect x="1139.73" y="331.43" width="1.57" height="3.15" transform="translate(73.09 863.6) rotate(-45)"/><rect x="1141.96" y="329.2" width="1.57" height="3.15" transform="translate(75.31 864.52) rotate(-45)"/><rect x="1147.52" y="343.66" width="1.57" height="3.15" transform="translate(66.72 872.69) rotate(-45)"/><rect x="1149.74" y="341.44" width="1.57" height="3.15" transform="translate(68.94 873.61) rotate(-45)"/><rect x="1151.97" y="339.21" width="1.57" height="3.15" transform="translate(71.17 874.53) rotate(-45)"/><rect x="1159.2" y="324.98" width="1.57" height="1.57" transform="translate(83.9 875.24) rotate(-45)"/><rect x="1134.73" y="331.66" width="1.57" height="1.57" transform="translate(72.02 859.9) rotate(-45)"/><rect x="1154.75" y="342.78" width="1.57" height="1.57" transform="translate(70.02 877.31) rotate(-45)"/><rect x="1130.28" y="349.45" width="1.57" height="1.57" transform="translate(58.13 861.96) rotate(-45)"/><path class="cls-4" d="M691.41,180.13l-10-10,12.23-12.23,10,10Z" transform="translate(-25.5 -40.4)"/><path d="M685.85,170.12l5.56,5.56,7.79-7.79-5.56-5.56Zm7.79-5.56,3.34,3.34-5.56,5.56-3.34-3.34Z" transform="translate(-25.5 -40.4)"/><path d="M712.55,173.45l.56.56,9.45-9.45L697,139l-9.45,9.45.56.56a2.36,2.36,0,0,1-3.34,3.34l-.56-.56-11.68,11.68,2.22,2.22-1.11,1.11-2.22-2.22-3.34,3.34,2.22,2.22-1.11,1.11L666.94,169l-4.45,4.45L688.08,199l11.12-11.12L697,185.69l1.11-1.11,2.22,2.22,3.34-3.34-2.22-2.22,1.11-1.11,2.22,2.22,5-5-.56-.56a2.36,2.36,0,0,1,3.34-3.34Zm-13.35-30,1.11,1.11-2.22,2.22L697,145.65Zm2.22,2.22,1.11,1.11L700.31,149l-1.11-1.11Zm2.22,2.22,1.11,1.11-2.22,2.22-1.11-1.11Zm2.22,2.22,1.11,1.11-2.22,2.22-1.11-1.11Zm-20,44.49-1.11-1.11,2.22-2.22,1.11,1.11Zm-2.22-2.22-1.11-1.11,2.22-2.22,1.11,1.11Zm-2.22-2.22L680.29,189l2.22-2.22,1.11,1.11Zm-2.22-2.22-1.11-1.11,2.22-2.22,1.11,1.11Zm28.42-10.62-2.84,2.84-2.22-2.22-3.34,3.34,2.22,2.22-1.11,1.11-2.22-2.22-3.34,3.34,2.22,2.22-8.9,8.9L687,195.7l3.34-3.34-10-10L677,185.69l-7.79-7.79,2.22-2.22,4.45,4.45L677,179l-1.11-1.11,4.45-4.45L677,170.12l4.45-4.45-1.11-1.11-5.56,5.56,3.34,3.34-3.34,3.34-3.34-3.34-3.34,3.34-3.34-3.34,2.22-2.22,2.22,2.22,3.34-3.34-2.22-2.22,1.11-1.11,2.22,2.22,3.34-3.34-2.22-2.22,9.51-9.51a3.93,3.93,0,0,0,5.45-5.45L697,141.2l1.11,1.11-3.34,3.34,10,10,3.34-3.34,7.79,7.79-2.22,2.22-4.45-4.45L708.1,159l1.11,1.11-4.45,4.45,3.34,3.34-4.45,4.45,1.11,1.11,5.56-5.56L707,164.56l3.34-3.34,3.34,3.34,3.34-3.34,3.34,3.34L713,171.84a3.93,3.93,0,0,0-5.45,5.45Z" transform="translate(-25.5 -40.4)"/><rect x="682.61" y="172.11" width="3.15" height="1.57" transform="translate(52.64 494.03) rotate(-45)"/><rect x="684.84" y="174.33" width="3.15" height="1.57" transform="translate(51.72 496.25) rotate(-45)"/><rect x="687.06" y="176.56" width="3.15" height="1.57" transform="translate(50.8 498.48) rotate(-45)"/><rect x="694.85" y="159.88" width="3.15" height="1.57" transform="translate(64.87 499.09) rotate(-45)"/><rect x="697.07" y="162.1" width="3.15" height="1.57" transform="translate(63.95 501.32) rotate(-45)"/><rect x="699.29" y="164.33" width="3.15" height="1.57" transform="translate(63.03 503.54) rotate(-45)"/><rect x="684.51" y="164.65" width="1.57" height="3.15" transform="translate(57.68 492.86) rotate(-45)"/><rect x="686.73" y="162.43" width="1.57" height="3.15" transform="translate(59.91 493.78) rotate(-45)"/><rect x="688.96" y="160.2" width="1.57" height="3.15" transform="translate(62.13 494.7) rotate(-45)"/><rect x="694.52" y="174.66" width="1.57" height="3.15" transform="translate(53.54 502.87) rotate(-45)"/><rect x="696.74" y="172.44" width="1.57" height="3.15" transform="translate(55.76 503.79) rotate(-45)"/><rect x="698.97" y="170.21" width="1.57" height="3.15" transform="translate(57.99 504.71) rotate(-45)"/><rect x="706.2" y="155.98" width="1.57" height="1.57" transform="translate(70.72 505.43) rotate(-45)"/><rect x="681.73" y="162.66" width="1.57" height="1.57" transform="translate(58.84 490.08) rotate(-45)"/><rect x="701.75" y="173.78" width="1.57" height="1.57" transform="translate(56.84 507.49) rotate(-45)"/><rect x="677.28" y="180.45" width="1.57" height="1.57" transform="translate(44.95 492.14) rotate(-45)"/><path class="cls-4" d="M54.41,349.13l-10-10,12.23-12.23,10,10Z" transform="translate(-25.5 -40.4)"/><path d="M48.85,339.12l5.56,5.56,7.79-7.79-5.56-5.56Zm7.79-5.56L60,336.89l-5.56,5.56-3.34-3.34Z" transform="translate(-25.5 -40.4)"/><path d="M75.55,342.45l.56.56,9.45-9.45L60,308l-9.45,9.45.56.56a2.36,2.36,0,1,1-3.34,3.34l-.56-.56L35.51,332.44l2.22,2.22-1.11,1.11-2.22-2.22-3.34,3.34,2.22,2.22-1.11,1.11L29.94,338l-4.45,4.45L51.08,368,62.2,356.91,60,354.69l1.11-1.11,2.22,2.22,3.34-3.34-2.22-2.22,1.11-1.11,2.22,2.22,5-5-.56-.56a2.36,2.36,0,0,1,3.34-3.34Zm-13.35-30,1.11,1.11-2.22,2.22L60,314.65Zm2.22,2.22,1.11,1.11L63.31,318l-1.11-1.11Zm2.22,2.22L67.76,318l-2.22,2.22-1.11-1.11Zm2.22,2.22L70,320.21l-2.22,2.22-1.11-1.11Zm-20,44.49-1.11-1.11L50,360.25l1.11,1.11Zm-2.22-2.22-1.11-1.11L47.74,358l1.11,1.11Zm-2.22-2.22L43.29,358l2.22-2.22,1.11,1.11Zm-2.22-2.22-1.11-1.11,2.22-2.22,1.11,1.11ZM70.6,346.29l-2.84,2.84-2.22-2.22-3.34,3.34,2.22,2.22-1.11,1.11-2.22-2.22-3.34,3.34L60,356.91l-8.9,8.9L50,364.7l3.34-3.34-10-10L40,354.69l-7.79-7.79,2.22-2.22,4.45,4.45L40,348l-1.11-1.11,4.45-4.45L40,339.12l4.45-4.45-1.11-1.11-5.56,5.56,3.34,3.34-3.34,3.34-3.34-3.34-3.34,3.34-3.34-3.34,2.22-2.22,2.22,2.22,3.34-3.34-2.22-2.22,1.11-1.11L36.62,338,40,334.67l-2.22-2.22,9.51-9.51a3.93,3.93,0,0,0,5.45-5.45L60,310.2l1.11,1.11-3.34,3.34,10,10,3.34-3.34,7.79,7.79-2.22,2.22-4.45-4.45L71.1,328l1.11,1.11-4.45,4.45,3.34,3.34-4.45,4.45,1.11,1.11,5.56-5.56L70,333.56l3.34-3.34,3.34,3.34L80,330.22l3.34,3.34L76,340.84a3.93,3.93,0,0,0-5.45,5.45Z" transform="translate(-25.5 -40.4)"/><rect x="45.61" y="341.11" width="3.15" height="1.57" transform="translate(-253.43 93.1) rotate(-45)"/><rect x="47.84" y="343.33" width="3.15" height="1.57" transform="translate(-254.36 95.32) rotate(-45)"/><rect x="50.06" y="345.56" width="3.15" height="1.57" transform="translate(-255.28 97.55) rotate(-45)"/><rect x="57.85" y="328.88" width="3.15" height="1.57" transform="translate(-241.2 98.17) rotate(-45)"/><rect x="60.07" y="331.1" width="3.15" height="1.57" transform="translate(-242.12 100.39) rotate(-45)"/><rect x="62.29" y="333.33" width="3.15" height="1.57" transform="translate(-243.04 102.62) rotate(-45)"/><rect x="47.51" y="333.65" width="1.57" height="3.15" transform="translate(-248.39 91.93) rotate(-45)"/><rect x="49.73" y="331.43" width="1.57" height="3.15" transform="translate(-246.16 92.85) rotate(-45)"/><rect x="51.96" y="329.2" width="1.57" height="3.15" transform="translate(-243.94 93.77) rotate(-45)"/><rect x="57.52" y="343.66" width="1.57" height="3.15" transform="translate(-252.54 101.94) rotate(-45)"/><rect x="59.74" y="341.44" width="1.57" height="3.15" transform="translate(-250.31 102.86) rotate(-45)"/><rect x="61.97" y="339.21" width="1.57" height="3.15" transform="translate(-248.09 103.78) rotate(-45)"/><rect x="69.2" y="324.98" width="1.57" height="1.57" transform="translate(-235.35 104.5) rotate(-45)"/><rect x="44.73" y="331.66" width="1.57" height="1.57" transform="translate(-247.24 89.15) rotate(-45)"/><rect x="64.75" y="342.78" width="1.57" height="1.57" transform="translate(-249.24 106.56) rotate(-45)"/><rect x="40.28" y="349.45" width="1.57" height="1.57" transform="translate(-261.12 91.22) rotate(-45)"/><text class="cls-5" transform="translate(404.22 420.6)">Planimetry</text><text class="cls-5" transform="translate(68.55 178.6)">CAM_3</text><text class="cls-5" transform="translate(573.22 12.6)">CAM_1</text><text class="cls-5" transform="translate(1027.55 180.6)">CAM_2</text><text class="cls-6" transform="translate(1047.03 337.6)">BOARD_2</text><text class="cls-6" transform="translate(686.34 155.6)">BOARD_1</text><text class="cls-6" transform="translate(49.03 332.6)">BOARD_3</text><text class="cls-7" transform="translate(570.82 457.84)">SERVER</text><text class="cls-6" transform="translate(455.11 464.6)">1</text><text class="cls-6" transform="translate(462.79 442.6)">2</text><text class="cls-6" transform="translate(424.79 447.6)">3</text><line class="cls-8" x1="664" y1="168.1" x2="664" y2="485.1"/><line class="cls-8" x1="29" y1="337.1" x2="29" y2="529.1"/><line class="cls-9" x1="1120" y1="335.1" x2="1120" y2="529.1"/><line class="cls-9" x1="29" y1="529.1" x2="1120" y2="529.1"/><line class="cls-10" x1="535" y1="501.6" x2="535" y2="529.6"/><circle cx="534.5" cy="528.6" r="7"/><line class="cls-11" x1="535.5" y1="529.6" x2="664.5" y2="484.6"/><line class="cls-12" x1="683" y1="168.1" x2="683" y2="488.1"/><line class="cls-12" x1="587.64" y1="521.12" x2="683.5" y2="487.6"/><polygon class="cls-13" points="591.51 523.69 588.8 520.72 589.07 516.7 582 523.1 591.51 523.69"/><line class="cls-14" x1="541" y1="541.1" x2="1131" y2="541.1"/><line class="cls-14" x1="528" y1="541.1" x2="14" y2="541.1"/><line class="cls-15" x1="1131" y1="541.1" x2="1131" y2="342.16"/><polygon class="cls-16" points="1131 335.1 1135.07 345.05 1131 342.68 1126.94 345.05 1131 335.1"/><line class="cls-15" x1="14" y1="541.1" x2="14" y2="342.16"/><polygon class="cls-16" points="14 335.1 18.07 345.05 14 342.68 9.94 345.05 14 335.1"/><text class="cls-17" transform="translate(886.23 539.19)">Background Sub.</text><text class="cls-17" transform="translate(175.23 539.19)">Background Sub.</text><line class="cls-14" x1="545" y1="513.6" x2="649" y2="475.6"/><line class="cls-14" x1="649" y1="175.66" x2="649" y2="475.6"/><polygon class="cls-16" points="649 168.6 644.94 178.54 649 176.18 653.07 178.54 649 168.6"/><text class="cls-18" transform="translate(685.61 192.22) rotate(90)">Movement detected: sending frame</text><text class="cls-17" transform="translate(646.63 365.45) rotate(-90)">Background Sub.</text><line class="cls-19" x1="623" y1="519.1" x2="714.5" y2="487.6"/><line class="cls-19" x1="714" y1="175.16" x2="714" y2="487.6"/><polygon class="cls-20" points="714 168.1 709.94 178.04 714 175.68 718.07 178.04 714 168.1"/><text class="cls-21" transform="translate(716.61 196.68) rotate(90)">Person detected: start tracking</text><line class="cls-22" x1="623.5" y1="519.1" x2="1104" y2="519.1"/><line class="cls-22" x1="1104" y1="519.1" x2="1104" y2="359.16"/><polygon class="cls-20" points="1104 352.1 1108.07 362.05 1104 359.68 1099.94 362.05 1104 352.1"/><line class="cls-22" x1="490" y1="519.1" x2="46" y2="519.1"/><line class="cls-22" x1="46" y1="519.1" x2="46" y2="362.16"/><polygon class="cls-20" points="46 355.1 50.07 365.05 46 362.68 41.94 365.05 46 355.1"/><text class="cls-21" transform="translate(53.56 515.6)">Last position on the left: Start tracking in this direction</text></g><g id="Livello_9" data-name="Livello 9"><path d="M504.73,469.64H444.27A1.27,1.27,0,0,0,443,470.9v60.47a1.27,1.27,0,0,0,1.27,1.27h36.88a1.27,1.27,0,0,0,0-2.53H445.53V500.6h17.66v12.14a1.27,1.27,0,1,0,2.53,0V486.23a1.27,1.27,0,1,0-2.53,0v11.84H445.53v-25.9h34.35V488a1.27,1.27,0,0,0,1.27,1.27h13.39a1.27,1.27,0,0,0,0-2.53H482.41V472.17h21.06v39.3H481.15a1.27,1.27,0,0,0,0,2.53h22.32v16.1h-8.94a1.27,1.27,0,0,0,0,2.53h10.2a1.27,1.27,0,0,0,1.27-1.27V470.9A1.27,1.27,0,0,0,504.73,469.64Z" transform="translate(-25.5 -40.4)"/></g></svg>